<svg width="345" height="273" viewBox="0 0 345 273" fill="none" xmlns="http://www.w3.org/2000/svg">
<circle cx="168.758" cy="136.5" r="131.5" fill="url(#paint0_linear_56_2)" stroke="black" stroke-width="10"/>
<mask id="path-2-outside-1_56_2" maskUnits="userSpaceOnUse" x="-0.742188" y="82" width="345" height="127" fill="black">
<rect fill="white" x="-0.742188" y="82" width="345" height="127"/>
<path d="M20.0796 93.3086C20.1727 92.75 20.3356 92.3543 20.5684 92.1216C20.8011 91.8888 23.1519 91.563 27.6206 91.144C32.0894 90.7251 38.2106 90.5156 45.9844 90.5156C53.8047 90.5156 59.8096 92.7733 63.999 97.2886C68.1885 101.757 70.2832 107.902 70.2832 115.722C70.2832 130.478 68.6307 147.469 65.3257 166.694C63.5568 176.888 60.694 184.476 56.7373 189.457C53.1064 194.018 47.4274 197.021 39.7002 198.464C36.209 199.069 31.9497 199.465 26.9224 199.651L9.53613 200.279C8.51204 200.233 8 199.791 8 198.953L20.0796 93.3086ZM36.0693 106.785L27.5508 182.823C34.4867 182.218 39.2812 180.868 41.9346 178.773C44.6344 176.679 46.5197 172.699 47.5903 166.833C48.661 160.968 49.7083 152.962 50.7324 142.814C51.8031 132.666 52.3384 124.357 52.3384 117.887C52.3384 114.07 51.4074 111.23 49.5454 109.368C47.6834 107.506 45.1465 106.575 41.9346 106.575C38.7692 106.575 36.8141 106.645 36.0693 106.785ZM118.113 198.534L118.671 193.157C113.039 198.231 106.662 200.768 99.5396 200.768C94.1864 200.768 90.2297 198.813 87.6694 194.903C85.1558 190.993 83.8989 186.105 83.8989 180.24C83.8989 179.262 83.992 177.936 84.1782 176.26L90.8115 117.817C90.9512 116.7 91.533 116.118 92.5571 116.071L106.662 115.513C107.639 115.606 108.128 116.095 108.128 116.979L101.844 172.07C101.704 173.281 101.634 174.398 101.634 175.422C101.634 179.332 102.379 181.939 103.869 183.242C105.405 184.546 107.686 185.197 110.711 185.197C113.784 185.197 116.809 184.615 119.789 183.452L127.19 117.817C127.33 116.7 127.911 116.118 128.936 116.071L143.04 115.583C144.018 115.676 144.506 116.164 144.506 117.049L135.429 197.835C135.29 198.953 134.661 199.558 133.544 199.651L119.928 200.279C118.718 200.233 118.113 199.651 118.113 198.534ZM181.304 177.167L197.293 117.747C197.573 116.676 198.201 116.118 199.179 116.071L213.842 115.583C215.006 115.676 215.587 116.281 215.587 117.398L187.169 197.905C186.75 199.069 186.145 199.697 185.354 199.791L171.04 200.279C170.155 200.233 169.643 199.791 169.503 198.953L158.611 117.747C158.75 116.676 159.332 116.118 160.356 116.071L174.112 115.583C175.182 115.629 175.764 116.234 175.857 117.398L181.304 177.167ZM225.502 186.943C224.432 184.15 223.687 181.403 223.268 178.704C222.896 175.957 222.709 172.21 222.709 167.462C222.709 162.714 223.222 156.849 224.246 149.866C227.644 126.591 238.21 114.954 255.946 114.954C262.789 114.954 268.025 117.305 271.656 122.006C275.287 126.708 277.103 132.806 277.103 140.3C277.103 147.795 276.637 155.08 275.706 162.155C275.566 163.412 274.845 164.064 273.542 164.11L239.048 165.297C239.002 165.996 238.979 166.927 238.979 168.09C238.979 173.35 239.886 177.517 241.702 180.589C243.564 183.661 246.357 185.197 250.081 185.197C253.805 185.197 257.249 184.662 260.415 183.591C263.626 182.474 265.512 181.916 266.07 181.916C266.629 181.916 267.118 182.102 267.537 182.474C267.956 182.847 268.165 183.359 268.165 184.01L266.769 196.299C266.722 196.998 266.582 197.463 266.35 197.696C266.163 197.882 265.768 198.091 265.163 198.324C259.53 199.953 254.107 200.768 248.894 200.768C243.68 200.768 239.63 200.14 236.744 198.883C233.858 197.626 231.531 196.02 229.762 194.065C228.039 192.063 226.62 189.689 225.502 186.943ZM240.724 147.771L240.096 152.24L258.32 151.333C259.111 151.286 259.623 151.146 259.856 150.914C260.554 150.215 260.903 148.307 260.903 145.188C260.903 142.023 260.787 139.812 260.554 138.555C260.368 137.251 260.019 135.925 259.507 134.575C258.436 131.596 256.597 130.106 253.991 130.106C251.431 130.106 249.406 130.548 247.916 131.433C244.611 133.481 242.214 138.927 240.724 147.771ZM301.541 115.862C302.612 105.621 303.31 100.338 303.636 100.012C303.962 99.6393 304.45 99.4299 305.102 99.3833L318.438 98.8945C319.695 98.9876 320.324 99.5695 320.324 100.64C319.439 105.807 318.694 110.765 318.089 115.513L334.358 114.954C335.476 115.001 336.034 115.606 336.034 116.77L334.079 127.872C333.893 128.989 333.311 129.571 332.333 129.617L316.344 130.246C313.178 158.734 311.596 174.444 311.596 177.377C311.596 182.823 313.923 185.546 318.578 185.546C320.952 185.546 323.256 185.174 325.491 184.429C327.725 183.684 329.122 183.312 329.68 183.312C330.658 183.312 331.146 183.917 331.146 185.127L329.68 197.347C329.587 198.045 329.401 198.557 329.122 198.883C328.889 199.209 327.748 199.604 325.7 200.07C323.699 200.535 320.254 200.768 315.366 200.768C308.198 200.768 302.891 199.116 299.446 195.811C296.002 192.459 294.279 187.478 294.279 180.868C294.279 174.258 296.118 157.454 299.795 130.455L292.953 130.734C291.789 130.688 291.207 130.106 291.207 128.989L293.092 117.747C293.232 116.676 293.837 116.118 294.908 116.071L301.541 115.862Z"/>
</mask>
<path d="M20.0796 93.3086C20.1727 92.75 20.3356 92.3543 20.5684 92.1216C20.8011 91.8888 23.1519 91.563 27.6206 91.144C32.0894 90.7251 38.2106 90.5156 45.9844 90.5156C53.8047 90.5156 59.8096 92.7733 63.999 97.2886C68.1885 101.757 70.2832 107.902 70.2832 115.722C70.2832 130.478 68.6307 147.469 65.3257 166.694C63.5568 176.888 60.694 184.476 56.7373 189.457C53.1064 194.018 47.4274 197.021 39.7002 198.464C36.209 199.069 31.9497 199.465 26.9224 199.651L9.53613 200.279C8.51204 200.233 8 199.791 8 198.953L20.0796 93.3086ZM36.0693 106.785L27.5508 182.823C34.4867 182.218 39.2812 180.868 41.9346 178.773C44.6344 176.679 46.5197 172.699 47.5903 166.833C48.661 160.968 49.7083 152.962 50.7324 142.814C51.8031 132.666 52.3384 124.357 52.3384 117.887C52.3384 114.07 51.4074 111.23 49.5454 109.368C47.6834 107.506 45.1465 106.575 41.9346 106.575C38.7692 106.575 36.8141 106.645 36.0693 106.785ZM118.113 198.534L118.671 193.157C113.039 198.231 106.662 200.768 99.5396 200.768C94.1864 200.768 90.2297 198.813 87.6694 194.903C85.1558 190.993 83.8989 186.105 83.8989 180.24C83.8989 179.262 83.992 177.936 84.1782 176.26L90.8115 117.817C90.9512 116.7 91.533 116.118 92.5571 116.071L106.662 115.513C107.639 115.606 108.128 116.095 108.128 116.979L101.844 172.07C101.704 173.281 101.634 174.398 101.634 175.422C101.634 179.332 102.379 181.939 103.869 183.242C105.405 184.546 107.686 185.197 110.711 185.197C113.784 185.197 116.809 184.615 119.789 183.452L127.19 117.817C127.33 116.7 127.911 116.118 128.936 116.071L143.04 115.583C144.018 115.676 144.506 116.164 144.506 117.049L135.429 197.835C135.29 198.953 134.661 199.558 133.544 199.651L119.928 200.279C118.718 200.233 118.113 199.651 118.113 198.534ZM181.304 177.167L197.293 117.747C197.573 116.676 198.201 116.118 199.179 116.071L213.842 115.583C215.006 115.676 215.587 116.281 215.587 117.398L187.169 197.905C186.75 199.069 186.145 199.697 185.354 199.791L171.04 200.279C170.155 200.233 169.643 199.791 169.503 198.953L158.611 117.747C158.75 116.676 159.332 116.118 160.356 116.071L174.112 115.583C175.182 115.629 175.764 116.234 175.857 117.398L181.304 177.167ZM225.502 186.943C224.432 184.15 223.687 181.403 223.268 178.704C222.896 175.957 222.709 172.21 222.709 167.462C222.709 162.714 223.222 156.849 224.246 149.866C227.644 126.591 238.21 114.954 255.946 114.954C262.789 114.954 268.025 117.305 271.656 122.006C275.287 126.708 277.103 132.806 277.103 140.3C277.103 147.795 276.637 155.08 275.706 162.155C275.566 163.412 274.845 164.064 273.542 164.11L239.048 165.297C239.002 165.996 238.979 166.927 238.979 168.09C238.979 173.35 239.886 177.517 241.702 180.589C243.564 183.661 246.357 185.197 250.081 185.197C253.805 185.197 257.249 184.662 260.415 183.591C263.626 182.474 265.512 181.916 266.07 181.916C266.629 181.916 267.118 182.102 267.537 182.474C267.956 182.847 268.165 183.359 268.165 184.01L266.769 196.299C266.722 196.998 266.582 197.463 266.35 197.696C266.163 197.882 265.768 198.091 265.163 198.324C259.53 199.953 254.107 200.768 248.894 200.768C243.68 200.768 239.63 200.14 236.744 198.883C233.858 197.626 231.531 196.02 229.762 194.065C228.039 192.063 226.62 189.689 225.502 186.943ZM240.724 147.771L240.096 152.24L258.32 151.333C259.111 151.286 259.623 151.146 259.856 150.914C260.554 150.215 260.903 148.307 260.903 145.188C260.903 142.023 260.787 139.812 260.554 138.555C260.368 137.251 260.019 135.925 259.507 134.575C258.436 131.596 256.597 130.106 253.991 130.106C251.431 130.106 249.406 130.548 247.916 131.433C244.611 133.481 242.214 138.927 240.724 147.771ZM301.541 115.862C302.612 105.621 303.31 100.338 303.636 100.012C303.962 99.6393 304.45 99.4299 305.102 99.3833L318.438 98.8945C319.695 98.9876 320.324 99.5695 320.324 100.64C319.439 105.807 318.694 110.765 318.089 115.513L334.358 114.954C335.476 115.001 336.034 115.606 336.034 116.77L334.079 127.872C333.893 128.989 333.311 129.571 332.333 129.617L316.344 130.246C313.178 158.734 311.596 174.444 311.596 177.377C311.596 182.823 313.923 185.546 318.578 185.546C320.952 185.546 323.256 185.174 325.491 184.429C327.725 183.684 329.122 183.312 329.68 183.312C330.658 183.312 331.146 183.917 331.146 185.127L329.68 197.347C329.587 198.045 329.401 198.557 329.122 198.883C328.889 199.209 327.748 199.604 325.7 200.07C323.699 200.535 320.254 200.768 315.366 200.768C308.198 200.768 302.891 199.116 299.446 195.811C296.002 192.459 294.279 187.478 294.279 180.868C294.279 174.258 296.118 157.454 299.795 130.455L292.953 130.734C291.789 130.688 291.207 130.106 291.207 128.989L293.092 117.747C293.232 116.676 293.837 116.118 294.908 116.071L301.541 115.862Z" fill="url(#paint1_linear_56_2)"/>
<path d="M20.0796 93.3086L12.1884 91.9934L12.1547 92.1959L12.1314 92.3998L20.0796 93.3086ZM63.999 97.2886L58.1345 102.73L58.1486 102.745L58.1627 102.76L63.999 97.2886ZM65.3257 166.694L73.2079 168.062L73.21 168.049L65.3257 166.694ZM56.7373 189.457L62.9967 194.439L63.0014 194.433L56.7373 189.457ZM39.7002 198.464L41.0665 206.346L41.1177 206.337L41.1688 206.328L39.7002 198.464ZM26.9224 199.651L27.2113 207.646L27.2185 207.645L26.9224 199.651ZM9.53613 200.279L9.17287 208.271L9.49892 208.286L9.8251 208.274L9.53613 200.279ZM8 198.953L0.0517894 198.044L0 198.497V198.953H8ZM36.0693 106.785L34.595 98.9217L28.778 100.012L28.1191 105.894L36.0693 106.785ZM27.5508 182.823L19.6005 181.933L18.5128 191.642L28.2461 190.793L27.5508 182.823ZM41.9346 178.773L37.0306 172.453L37.0039 172.473L36.9774 172.494L41.9346 178.773ZM50.7324 142.814L42.7766 141.975L42.7747 141.993L42.7729 142.011L50.7324 142.814ZM20.0796 93.3086L27.9707 94.6238C27.9481 94.7597 27.8766 95.1347 27.669 95.6389C27.4634 96.1383 27.0432 96.9604 26.2252 97.7784L20.5684 92.1216L14.9115 86.4647C12.9185 88.4577 12.3793 90.8479 12.1884 91.9934L20.0796 93.3086ZM20.5684 92.1216L26.2252 97.7784C25.7402 98.2634 25.2833 98.5934 24.9722 98.7967C24.6495 99.0075 24.3668 99.1577 24.1641 99.2573C23.7714 99.4502 23.4546 99.5624 23.3021 99.6136C23.1302 99.6713 23.0018 99.7062 22.9403 99.7222C22.8736 99.7396 22.8342 99.7481 22.8307 99.7489C22.828 99.7495 22.8887 99.7366 23.0348 99.7123C23.1752 99.689 23.3627 99.6604 23.6044 99.6269C24.6019 99.4886 26.1668 99.3154 28.3673 99.1091L27.6206 91.144L26.8739 83.179C24.6056 83.3916 22.7608 83.5908 21.4076 83.7784C20.7505 83.8695 20.0642 83.9773 19.4494 84.1103C19.1568 84.1735 18.7043 84.2795 18.2077 84.4463C17.9599 84.5295 17.5644 84.673 17.1096 84.8964C16.7519 85.0721 15.8292 85.547 14.9115 86.4647L20.5684 92.1216ZM27.6206 91.144L28.3673 99.1091C32.4725 98.7243 38.3082 98.5156 45.9844 98.5156V90.5156V82.5156C38.113 82.5156 31.7062 82.7259 26.8739 83.179L27.6206 91.144ZM45.9844 90.5156V98.5156C52.2172 98.5156 55.8443 100.261 58.1345 102.73L63.999 97.2886L69.8635 91.8473C63.7749 85.285 55.3922 82.5156 45.9844 82.5156V90.5156ZM63.999 97.2886L58.1627 102.76C60.6084 105.369 62.2832 109.35 62.2832 115.722H70.2832H78.2832C78.2832 106.453 75.7686 98.1459 69.8353 91.817L63.999 97.2886ZM70.2832 115.722H62.2832C62.2832 129.906 60.6923 146.428 57.4413 165.338L65.3257 166.694L73.21 168.049C76.5691 148.51 78.2832 131.05 78.2832 115.722H70.2832ZM65.3257 166.694L57.4435 165.326C55.7756 174.938 53.2308 181.009 50.4733 184.48L56.7373 189.457L63.0014 194.433C68.1572 187.942 71.338 178.838 73.2079 168.062L65.3257 166.694ZM56.7373 189.457L50.4779 184.475C48.4079 187.075 44.731 189.386 38.2316 190.6L39.7002 198.464L41.1688 206.328C50.1238 204.656 57.805 200.961 62.9967 194.439L56.7373 189.457ZM39.7002 198.464L38.3339 190.581C35.309 191.106 31.4305 191.478 26.6263 191.656L26.9224 199.651L27.2185 207.645C32.4689 207.451 37.109 207.032 41.0665 206.346L39.7002 198.464ZM26.9224 199.651L26.6334 191.656L9.24716 192.285L9.53613 200.279L9.8251 208.274L27.2113 207.646L26.9224 199.651ZM9.53613 200.279L9.89939 192.288C10.3009 192.306 11.9676 192.437 13.613 193.858C15.5259 195.51 16 197.648 16 198.953H8H0C0 201.095 0.730161 203.873 3.15507 205.967C5.31255 207.831 7.74732 208.206 9.17287 208.271L9.53613 200.279ZM8 198.953L15.9482 199.861L28.0278 94.2174L20.0796 93.3086L12.1314 92.3998L0.0517894 198.044L8 198.953ZM36.0693 106.785L28.1191 105.894L19.6005 181.933L27.5508 182.823L35.501 183.714L44.0196 107.675L36.0693 106.785ZM27.5508 182.823L28.2461 190.793C35.3971 190.169 42.2683 188.703 46.8917 185.052L41.9346 178.773L36.9774 172.494C36.2942 173.034 33.5762 174.267 26.8554 174.854L27.5508 182.823ZM41.9346 178.773L46.8385 185.094C51.8997 181.167 54.2762 174.757 55.4603 168.27L47.5903 166.833L39.7204 165.397C38.7632 170.641 37.3692 172.19 37.0306 172.453L41.9346 178.773ZM47.5903 166.833L55.4603 168.27C56.5867 162.099 57.6592 153.851 58.692 143.617L50.7324 142.814L42.7729 142.011C41.7575 152.072 40.7352 159.837 39.7204 165.397L47.5903 166.833ZM50.7324 142.814L58.6883 143.653C59.7736 133.366 60.3384 124.749 60.3384 117.887H52.3384H44.3384C44.3384 123.965 43.8325 131.966 42.7766 141.975L50.7324 142.814ZM52.3384 117.887H60.3384C60.3384 112.903 59.1267 107.636 55.2023 103.711L49.5454 109.368L43.8886 115.025C43.6881 114.825 44.3384 115.236 44.3384 117.887H52.3384ZM49.5454 109.368L55.2023 103.711C51.522 100.031 46.7718 98.5752 41.9346 98.5752V106.575V114.575C43.5212 114.575 43.8448 114.981 43.8886 115.025L49.5454 109.368ZM41.9346 106.575V98.5752C39.0716 98.5752 36.2417 98.6129 34.595 98.9217L36.0693 106.785L37.5436 114.648C37.3094 114.692 37.2379 114.687 37.4737 114.669C37.6635 114.654 37.958 114.638 38.3798 114.622C39.2225 114.592 40.3968 114.575 41.9346 114.575V106.575ZM118.113 198.534L110.156 197.707L110.113 198.119V198.534H118.113ZM118.671 193.157L126.629 193.984L128.779 173.285L113.317 187.213L118.671 193.157ZM87.6694 194.903L80.94 199.229L80.9581 199.257L80.9765 199.285L87.6694 194.903ZM84.1782 176.26L76.2293 175.358L76.2282 175.367L76.2271 175.376L84.1782 176.26ZM90.8115 117.817L82.8733 116.825L82.8677 116.87L82.8626 116.915L90.8115 117.817ZM92.5571 116.071L92.2405 108.078L92.2172 108.078L92.1939 108.08L92.5571 116.071ZM106.662 115.513L107.42 107.549L106.884 107.498L106.345 107.519L106.662 115.513ZM108.128 116.979L116.076 117.886L116.128 117.434V116.979H108.128ZM101.844 172.07L109.791 172.987L109.792 172.977L101.844 172.07ZM103.869 183.242L98.6006 189.263L98.6464 189.303L98.6928 189.342L103.869 183.242ZM119.789 183.452L122.699 190.903L127.197 189.146L127.738 184.348L119.789 183.452ZM127.19 117.817L119.252 116.825L119.246 116.872L119.24 116.92L127.19 117.817ZM128.936 116.071L128.658 108.076L128.615 108.078L128.572 108.08L128.936 116.071ZM143.04 115.583L143.799 107.619L143.282 107.569L142.763 107.587L143.04 115.583ZM144.506 117.049L152.456 117.942L152.506 117.497V117.049H144.506ZM135.429 197.835L143.367 198.828L143.374 198.778L143.379 198.729L135.429 197.835ZM133.544 199.651L133.913 207.642L134.061 207.636L134.208 207.623L133.544 199.651ZM119.928 200.279L119.621 208.273L119.959 208.286L120.297 208.271L119.928 200.279ZM118.113 198.534L126.07 199.36L126.629 193.984L118.671 193.157L110.714 192.331L110.156 197.707L118.113 198.534ZM118.671 193.157L113.317 187.213C109.05 191.057 104.549 192.768 99.5396 192.768V200.768V208.768C108.774 208.768 117.027 205.406 124.026 199.101L118.671 193.157ZM99.5396 200.768V192.768C96.4259 192.768 95.2096 191.815 94.3624 190.521L87.6694 194.903L80.9765 199.285C85.2497 205.811 91.9469 208.768 99.5396 208.768V200.768ZM87.6694 194.903L94.3989 190.577C92.9071 188.256 91.8989 184.97 91.8989 180.24H83.8989H75.8989C75.8989 187.239 77.4044 193.729 80.94 199.229L87.6694 194.903ZM83.8989 180.24H91.8989C91.8989 179.694 91.956 178.703 92.1293 177.143L84.1782 176.26L76.2271 175.376C76.0281 177.168 75.8989 178.831 75.8989 180.24H83.8989ZM84.1782 176.26L92.1272 177.162L98.7605 118.719L90.8115 117.817L82.8626 116.915L76.2293 175.358L84.1782 176.26ZM90.8115 117.817L98.7497 118.809C98.6792 119.373 98.3683 120.841 97.0095 122.199C95.5647 123.644 93.8912 124.019 92.9204 124.063L92.5571 116.071L92.1939 108.08C90.199 108.17 87.7225 108.859 85.6958 110.886C83.7551 112.826 83.0835 115.143 82.8733 116.825L90.8115 117.817ZM92.5571 116.071L92.8737 124.065L106.978 123.506L106.662 115.513L106.345 107.519L92.2405 108.078L92.5571 116.071ZM106.662 115.513L105.903 123.477C105.305 123.42 103.632 123.133 102.104 121.606C100.46 119.961 100.128 118.037 100.128 116.979H108.128H116.128C116.128 115.037 115.552 112.426 113.418 110.292C111.402 108.276 108.995 107.699 107.42 107.549L106.662 115.513ZM108.128 116.979L100.179 116.072L93.8953 171.164L101.844 172.07L109.792 172.977L116.076 117.886L108.128 116.979ZM101.844 172.07L93.8965 171.153C93.7281 172.613 93.6343 174.04 93.6343 175.422H101.634H109.634C109.634 174.755 109.68 173.948 109.791 172.987L101.844 172.07ZM101.634 175.422H93.6343C93.6343 179.634 94.2892 185.49 98.6006 189.263L103.869 183.242L109.137 177.222C109.906 177.895 109.986 178.464 109.885 178.112C109.785 177.762 109.634 176.931 109.634 175.422H101.634ZM103.869 183.242L98.6928 189.342C102.247 192.358 106.708 193.197 110.711 193.197V185.197V177.197C109.748 177.197 109.19 177.091 108.929 177.016C108.691 176.948 108.804 176.938 109.044 177.142L103.869 183.242ZM110.711 185.197V193.197C114.82 193.197 118.831 192.414 122.699 190.903L119.789 183.452L116.878 176C114.788 176.816 112.747 177.197 110.711 177.197V185.197ZM119.789 183.452L127.738 184.348L135.14 118.713L127.19 117.817L119.24 116.92L111.839 182.555L119.789 183.452ZM127.19 117.817L135.128 118.809C135.058 119.373 134.747 120.841 133.388 122.199C131.943 123.644 130.27 124.019 129.299 124.063L128.936 116.071L128.572 108.08C126.577 108.17 124.101 108.859 122.074 110.886C120.134 112.826 119.462 115.143 119.252 116.825L127.19 117.817ZM128.936 116.071L129.213 124.066L143.317 123.578L143.04 115.583L142.763 107.587L128.658 108.076L128.936 116.071ZM143.04 115.583L142.282 123.546C141.684 123.49 140.01 123.203 138.483 121.676C136.838 120.031 136.506 118.107 136.506 117.049H144.506H152.506C152.506 115.106 151.93 112.495 149.797 110.362C147.781 108.346 145.374 107.769 143.799 107.619L143.04 115.583ZM144.506 117.049L136.556 116.156L127.479 196.942L135.429 197.835L143.379 198.729L152.456 117.942L144.506 117.049ZM135.429 197.835L127.491 196.843C127.581 196.12 127.957 194.661 129.304 193.365C130.654 192.064 132.135 191.741 132.88 191.679L133.544 199.651L134.208 207.623C136.07 207.468 138.424 206.795 140.402 204.89C142.377 202.988 143.137 200.668 143.367 198.828L135.429 197.835ZM133.544 199.651L133.175 191.659L119.559 192.288L119.928 200.279L120.297 208.271L133.913 207.642L133.544 199.651ZM119.928 200.279L120.236 192.285C120.734 192.304 122.485 192.478 124.112 194.041C125.846 195.709 126.113 197.665 126.113 198.534H118.113H110.113C110.113 200.52 110.682 203.325 113.022 205.575C115.253 207.72 117.912 208.208 119.621 208.273L119.928 200.279ZM181.304 177.167L173.337 177.893L189.029 179.246L181.304 177.167ZM197.293 117.747L205.019 119.826L205.027 119.796L205.034 119.766L197.293 117.747ZM199.179 116.071L198.912 108.076L198.855 108.078L198.798 108.08L199.179 116.071ZM213.842 115.583L214.48 107.608L214.028 107.572L213.575 107.587L213.842 115.583ZM215.587 117.398L223.131 120.061L223.587 118.768V117.398H215.587ZM187.169 197.905L194.696 200.615L194.704 200.592L194.713 200.568L187.169 197.905ZM185.354 199.791L185.627 207.786L185.958 207.775L186.288 207.736L185.354 199.791ZM171.04 200.279L170.619 208.268L170.966 208.286L171.313 208.275L171.04 200.279ZM169.503 198.953L161.574 200.016L161.591 200.142L161.612 200.268L169.503 198.953ZM158.611 117.747L150.678 116.712L150.541 117.762L150.682 118.811L158.611 117.747ZM160.356 116.071L160.072 108.076L160.033 108.078L159.993 108.08L160.356 116.071ZM174.112 115.583L174.459 107.59L174.144 107.576L173.828 107.588L174.112 115.583ZM175.857 117.398L167.883 118.036L167.886 118.08L167.89 118.124L175.857 117.398ZM181.304 177.167L189.029 179.246L205.019 119.826L197.293 117.747L189.568 115.668L173.579 175.089L181.304 177.167ZM197.293 117.747L205.034 119.766C204.899 120.286 204.478 121.447 203.289 122.504C202.019 123.633 200.583 124.013 199.559 124.062L199.179 116.071L198.798 108.08C196.797 108.176 194.558 108.858 192.659 110.546C190.842 112.162 189.967 114.138 189.553 115.728L197.293 117.747ZM199.179 116.071L199.445 124.067L214.108 123.578L213.842 115.583L213.575 107.587L198.912 108.076L199.179 116.071ZM213.842 115.583L213.204 123.557C212.598 123.509 210.898 123.225 209.384 121.651C207.82 120.024 207.587 118.204 207.587 117.398H215.587H223.587C223.587 115.475 223.064 112.794 220.918 110.561C218.822 108.382 216.25 107.75 214.48 107.608L213.842 115.583ZM215.587 117.398L208.044 114.735L179.625 195.242L187.169 197.905L194.713 200.568L223.131 120.061L215.587 117.398ZM187.169 197.905L179.642 195.196C179.666 195.129 179.904 194.462 180.638 193.7C181.489 192.817 182.798 192.036 184.419 191.845L185.354 199.791L186.288 207.736C191.567 207.115 193.874 202.898 194.696 200.615L187.169 197.905ZM185.354 199.791L185.081 191.795L170.767 192.284L171.04 200.279L171.313 208.275L185.627 207.786L185.354 199.791ZM171.04 200.279L171.46 192.29C172.241 192.331 173.769 192.604 175.221 193.858C176.71 195.144 177.238 196.698 177.395 197.637L169.503 198.953L161.612 200.268C161.909 202.046 162.763 204.24 164.763 205.967C166.728 207.664 168.954 208.181 170.619 208.268L171.04 200.279ZM169.503 198.953L177.432 197.889L166.54 116.684L158.611 117.747L150.682 118.811L161.574 200.016L169.503 198.953ZM158.611 117.747L166.544 118.782C166.458 119.44 166.099 120.946 164.692 122.296C163.237 123.693 161.605 124.023 160.72 124.063L160.356 116.071L159.993 108.08C158.084 108.166 155.649 108.799 153.612 110.754C151.623 112.663 150.904 114.983 150.678 116.712L158.611 117.747ZM160.356 116.071L160.641 124.066L174.396 123.577L174.112 115.583L173.828 107.588L160.072 108.076L160.356 116.071ZM174.112 115.583L173.764 123.575C172.837 123.535 171.082 123.173 169.585 121.616C168.175 120.15 167.927 118.584 167.883 118.036L175.857 117.398L183.832 116.76C183.695 115.048 183.109 112.597 181.118 110.526C179.039 108.364 176.457 107.677 174.459 107.59L174.112 115.583ZM175.857 117.398L167.89 118.124L173.337 177.893L181.304 177.167L189.271 176.442L183.824 116.672L175.857 117.398ZM225.502 186.943L218.032 189.806L218.062 189.882L218.092 189.957L225.502 186.943ZM223.268 178.704L215.341 179.779L215.351 179.855L215.363 179.93L223.268 178.704ZM224.246 149.866L232.161 151.027L232.162 151.022L224.246 149.866ZM275.706 162.155L267.774 161.112L267.764 161.192L267.755 161.272L275.706 162.155ZM273.542 164.11L273.817 172.106L273.827 172.105L273.542 164.11ZM239.048 165.297L238.773 157.302L231.547 157.551L231.066 164.765L239.048 165.297ZM241.702 180.589L234.814 184.659L234.837 184.697L234.86 184.735L241.702 180.589ZM260.415 183.591L262.978 191.17L263.01 191.159L263.043 191.147L260.415 183.591ZM267.537 182.474L272.852 176.495L267.537 182.474ZM268.165 184.01L276.114 184.914L276.165 184.463V184.01H268.165ZM266.769 196.299L258.82 195.396L258.799 195.581L258.786 195.767L266.769 196.299ZM266.35 197.696L260.693 192.039L266.35 197.696ZM265.163 198.324L267.386 206.009L267.715 205.914L268.034 205.791L265.163 198.324ZM229.762 194.065L223.698 199.283L223.763 199.358L223.829 199.432L229.762 194.065ZM240.724 147.771L232.835 146.443L232.817 146.55L232.802 146.657L240.724 147.771ZM240.096 152.24L232.174 151.126L230.826 160.712L240.494 160.23L240.096 152.24ZM258.32 151.333L258.718 159.323L258.754 159.321L258.79 159.319L258.32 151.333ZM260.554 138.555L252.635 139.686L252.658 139.849L252.688 140.011L260.554 138.555ZM259.507 134.575L251.978 137.28L252.002 137.346L252.027 137.412L259.507 134.575ZM247.916 131.433L243.832 124.554L243.766 124.593L243.702 124.633L247.916 131.433ZM225.502 186.943L232.972 184.079C232.086 181.766 231.498 179.567 231.173 177.477L223.268 178.704L215.363 179.93C215.876 183.24 216.778 186.534 218.032 189.806L225.502 186.943ZM223.268 178.704L231.196 177.629C230.894 175.402 230.709 172.065 230.709 167.462H222.709H214.709C214.709 172.355 214.898 176.513 215.341 179.779L223.268 178.704ZM222.709 167.462H230.709C230.709 163.24 231.169 157.791 232.161 151.027L224.246 149.866L216.33 148.705C215.274 155.906 214.709 162.188 214.709 167.462H222.709ZM224.246 149.866L232.162 151.022C233.738 140.224 236.837 133.251 240.642 129.06C244.206 125.135 249.013 122.954 255.946 122.954V114.954V106.954C245.143 106.954 235.799 110.592 228.797 118.304C222.035 125.751 218.151 136.233 216.33 148.71L224.246 149.866ZM255.946 114.954V122.954C260.737 122.954 263.451 124.471 265.325 126.896L271.656 122.006L277.988 117.117C272.599 110.139 264.841 106.954 255.946 106.954V114.954ZM271.656 122.006L265.325 126.896C267.618 129.866 269.103 134.105 269.103 140.3H277.103H285.103C285.103 131.506 282.956 123.55 277.988 117.117L271.656 122.006ZM277.103 140.3H269.103C269.103 147.463 268.658 154.399 267.774 161.112L275.706 162.155L283.638 163.199C284.616 155.761 285.103 148.126 285.103 140.3H277.103ZM275.706 162.155L267.755 161.272C267.835 160.554 268.215 158.989 269.698 157.65C271.149 156.339 272.672 156.136 273.256 156.115L273.542 164.11L273.827 172.105C275.715 172.038 278.25 171.486 280.422 169.523C282.627 167.532 283.438 165.013 283.657 163.039L275.706 162.155ZM273.542 164.11L273.266 156.115L238.773 157.302L239.048 165.297L239.323 173.293L273.817 172.106L273.542 164.11ZM239.048 165.297L231.066 164.765C231.003 165.718 230.979 166.849 230.979 168.09H238.979H246.979C246.979 167.005 247.001 166.273 247.031 165.83L239.048 165.297ZM238.979 168.09H230.979C230.979 174.148 232.004 179.904 234.814 184.659L241.702 180.589L248.589 176.519C247.768 175.13 246.979 172.552 246.979 168.09H238.979ZM241.702 180.589L234.86 184.735C238.236 190.305 243.684 193.197 250.081 193.197V185.197V177.197C249.339 177.197 249.079 177.052 249.048 177.035C249.031 177.026 248.841 176.934 248.543 176.442L241.702 180.589ZM250.081 185.197V193.197C254.577 193.197 258.898 192.549 262.978 191.17L260.415 183.591L257.851 176.013C255.6 176.774 253.032 177.197 250.081 177.197V185.197ZM260.415 183.591L263.043 191.147C264.602 190.605 265.742 190.232 266.51 190.005C266.899 189.89 267.109 189.836 267.185 189.819C267.222 189.811 267.164 189.825 267.038 189.845C266.956 189.858 266.588 189.916 266.07 189.916V181.916V173.916C264.956 173.916 263.971 174.141 263.62 174.221C263.085 174.344 262.518 174.5 261.965 174.664C260.847 174.995 259.439 175.461 257.786 176.035L260.415 183.591ZM266.07 181.916V189.916C265.443 189.916 264.733 189.807 264.008 189.531C263.283 189.255 262.685 188.865 262.222 188.453L267.537 182.474L272.852 176.495C270.974 174.826 268.596 173.916 266.07 173.916V181.916ZM267.537 182.474L262.222 188.453C261.531 187.84 260.967 187.056 260.604 186.167C260.252 185.306 260.165 184.541 260.165 184.01H268.165H276.165C276.165 181.483 275.262 178.638 272.852 176.495L267.537 182.474ZM268.165 184.01L260.216 183.107L258.82 195.396L266.769 196.299L274.717 197.203L276.114 184.914L268.165 184.01ZM266.769 196.299L258.786 195.767C258.787 195.755 258.806 195.406 258.966 194.873C259.109 194.398 259.532 193.199 260.693 192.039L266.35 197.696L272.006 203.353C273.4 201.959 274.009 200.412 274.292 199.471C274.591 198.473 274.703 197.542 274.751 196.831L266.769 196.299ZM266.35 197.696L260.693 192.039C261.097 191.635 261.459 191.37 261.672 191.224C261.898 191.071 262.075 190.972 262.17 190.922C262.349 190.828 262.415 190.81 262.291 190.857L265.163 198.324L268.034 205.791C268.584 205.579 270.486 204.874 272.006 203.353L266.35 197.696ZM265.163 198.324L262.94 190.639C257.941 192.085 253.268 192.768 248.894 192.768V200.768V208.768C254.946 208.768 261.119 207.822 267.386 206.009L265.163 198.324ZM248.894 200.768V192.768C244.15 192.768 241.367 192.17 239.938 191.548L236.744 198.883L233.55 206.217C237.894 208.109 243.21 208.768 248.894 208.768V200.768ZM236.744 198.883L239.938 191.548C237.895 190.658 236.567 189.662 235.694 188.698L229.762 194.065L223.829 199.432C226.494 202.378 229.821 204.594 233.55 206.217L236.744 198.883ZM229.762 194.065L235.826 188.847C234.733 187.577 233.743 185.97 232.913 183.928L225.502 186.943L218.092 189.957C219.496 193.409 221.345 196.549 223.698 199.283L229.762 194.065ZM240.724 147.771L232.802 146.657L232.174 151.126L240.096 152.24L248.018 153.354L248.646 148.886L240.724 147.771ZM240.096 152.24L240.494 160.23L258.718 159.323L258.32 151.333L257.922 143.342L239.698 144.25L240.096 152.24ZM258.32 151.333L258.79 159.319C259.496 159.277 260.42 159.179 261.402 158.911C262.262 158.676 263.984 158.099 265.513 156.57L259.856 150.914L254.199 145.257C254.885 144.57 255.569 144.156 256.051 143.915C256.537 143.672 256.943 143.543 257.192 143.475C257.663 143.346 257.935 143.341 257.85 143.346L258.32 151.333ZM259.856 150.914L265.513 156.57C267.679 154.405 268.28 151.661 268.511 150.398C268.808 148.772 268.903 146.978 268.903 145.188H260.903H252.903C252.903 145.824 252.885 146.339 252.857 146.746C252.828 147.16 252.793 147.406 252.772 147.519C252.748 147.652 252.762 147.5 252.891 147.18C252.959 147.01 253.079 146.745 253.273 146.427C253.467 146.109 253.764 145.692 254.199 145.257L259.856 150.914ZM260.903 145.188H268.903C268.903 142.04 268.802 139.159 268.42 137.098L260.554 138.555L252.688 140.011C252.772 140.465 252.903 142.005 252.903 145.188H260.903ZM260.554 138.555L268.474 137.423C268.197 135.484 267.688 133.586 266.987 131.737L259.507 134.575L252.027 137.412C252.35 138.264 252.539 139.019 252.635 139.686L260.554 138.555ZM259.507 134.575L267.035 131.869C266.168 129.454 264.738 126.933 262.361 125.007C259.87 122.989 256.929 122.106 253.991 122.106V130.106V138.106C253.874 138.106 253.61 138.088 253.26 137.971C252.901 137.85 252.565 137.663 252.289 137.439C251.75 137.003 251.775 136.716 251.978 137.28L259.507 134.575ZM253.991 130.106V122.106C250.634 122.106 247.012 122.666 243.832 124.554L247.916 131.433L252 138.311C251.88 138.383 251.924 138.326 252.259 138.253C252.598 138.179 253.156 138.106 253.991 138.106V130.106ZM247.916 131.433L243.702 124.633C240.125 126.849 237.844 130.361 236.317 133.831C234.754 137.382 233.64 141.662 232.835 146.443L240.724 147.771L248.613 149.1C249.297 145.036 250.127 142.171 250.961 140.276C251.831 138.3 252.402 138.064 252.13 138.233L247.916 131.433ZM301.541 115.862L301.794 123.858L308.772 123.637L309.498 116.694L301.541 115.862ZM303.636 100.012L309.293 105.669L309.481 105.48L309.656 105.28L303.636 100.012ZM305.102 99.3833L304.809 91.3887L304.67 91.3937L304.532 91.4036L305.102 99.3833ZM318.438 98.8945L319.029 90.9164L318.588 90.8837L318.145 90.8999L318.438 98.8945ZM320.324 100.64L328.209 101.99L328.324 101.32V100.64H320.324ZM318.089 115.513L310.154 114.501L308.965 123.831L318.364 123.508L318.089 115.513ZM334.358 114.954L334.691 106.961L334.388 106.948L334.084 106.959L334.358 114.954ZM336.034 116.77L343.913 118.157L344.034 117.469V116.77H336.034ZM334.079 127.872L326.2 126.484L326.194 126.52L326.188 126.556L334.079 127.872ZM332.333 129.617L332.648 137.611L332.681 137.61L332.714 137.608L332.333 129.617ZM316.344 130.246L316.03 122.252L309.153 122.522L308.393 129.362L316.344 130.246ZM325.491 184.429L322.961 176.84L325.491 184.429ZM331.146 185.127L339.09 186.081L339.146 185.606V185.127H331.146ZM329.68 197.347L337.61 198.404L337.617 198.352L337.623 198.3L329.68 197.347ZM329.122 198.883L323.048 193.676L322.817 193.945L322.612 194.233L329.122 198.883ZM325.7 200.07L323.927 192.269L323.908 192.273L323.888 192.278L325.7 200.07ZM299.446 195.811L293.867 201.544L293.887 201.564L293.908 201.583L299.446 195.811ZM299.795 130.455L307.722 131.535L309.011 122.072L299.469 122.462L299.795 130.455ZM292.953 130.734L292.633 138.728L292.956 138.741L293.279 138.728L292.953 130.734ZM291.207 128.989L283.317 127.666L283.207 128.323V128.989H291.207ZM293.092 117.747L300.982 119.07L301.006 118.926L301.025 118.782L293.092 117.747ZM294.908 116.071L294.655 108.075L294.608 108.077L294.56 108.079L294.908 116.071ZM301.541 115.862L309.498 116.694C310.031 111.592 310.464 107.798 310.799 105.267C310.968 103.985 311.099 103.128 311.191 102.622C311.241 102.351 311.254 102.323 311.224 102.435C311.212 102.48 311.147 102.725 311.014 103.063C310.946 103.234 310.819 103.539 310.616 103.908C310.446 104.218 310.032 104.929 309.293 105.669L303.636 100.012L297.979 94.3549C296.694 95.6395 296.182 97.0578 296.127 97.1993C295.947 97.6552 295.833 98.0571 295.768 98.2978C295.633 98.8011 295.53 99.319 295.452 99.7488C295.288 100.645 295.116 101.81 294.937 103.17C294.573 105.923 294.122 109.891 293.584 115.03L301.541 115.862ZM303.636 100.012L309.656 105.28C308.193 106.953 306.426 107.309 305.672 107.363L305.102 99.3833L304.532 91.4036C302.475 91.5506 299.731 92.3261 297.615 94.7437L303.636 100.012ZM305.102 99.3833L305.395 107.378L318.731 106.889L318.438 98.8945L318.145 90.8999L304.809 91.3887L305.102 99.3833ZM318.438 98.8945L317.848 106.873C317.491 106.846 315.932 106.673 314.417 105.271C312.705 103.685 312.324 101.737 312.324 100.64H320.324H328.324C328.324 98.4723 327.628 95.698 325.288 93.5307C323.144 91.5462 320.643 91.0359 319.029 90.9164L318.438 98.8945ZM320.324 100.64L312.438 99.2904C311.537 104.559 310.774 109.63 310.154 114.501L318.089 115.513L326.025 116.524C326.615 111.899 327.342 107.055 328.209 101.99L320.324 100.64ZM318.089 115.513L318.364 123.508L334.633 122.949L334.358 114.954L334.084 106.959L317.815 107.517L318.089 115.513ZM334.358 114.954L334.025 122.947C333.245 122.915 331.346 122.613 329.737 120.869C328.178 119.18 328.034 117.369 328.034 116.77H336.034H344.034C344.034 115.007 343.611 112.311 341.494 110.017C339.326 107.668 336.589 107.04 334.691 106.961L334.358 114.954ZM336.034 116.77L328.155 115.382L326.2 126.484L334.079 127.872L341.958 129.259L343.913 118.157L336.034 116.77ZM334.079 127.872L326.188 126.556C326.268 126.075 326.588 124.747 327.846 123.489C329.221 122.114 330.852 121.679 331.953 121.626L332.333 129.617L332.714 137.608C334.793 137.509 337.203 136.759 339.16 134.803C341 132.963 341.704 130.786 341.97 129.187L334.079 127.872ZM332.333 129.617L332.019 121.623L316.03 122.252L316.344 130.246L316.658 138.239L332.648 137.611L332.333 129.617ZM316.344 130.246L308.393 129.362C306.809 143.615 305.618 154.697 304.823 162.593C304.054 170.222 303.596 175.401 303.596 177.377H311.596H319.596C319.596 176.42 319.928 172.278 320.742 164.197C321.53 156.382 322.713 145.364 324.295 131.129L316.344 130.246ZM311.596 177.377H303.596C303.596 181.053 304.354 185.302 307.26 188.702C310.371 192.342 314.661 193.546 318.578 193.546V185.546V177.546C318.176 177.546 318.182 177.486 318.43 177.583C318.559 177.633 318.731 177.717 318.92 177.85C319.11 177.983 319.281 178.14 319.423 178.306C319.714 178.647 319.76 178.877 319.726 178.759C319.686 178.619 319.596 178.195 319.596 177.377H311.596ZM318.578 185.546V193.546C321.805 193.546 324.964 193.038 328.021 192.019L325.491 184.429L322.961 176.84C321.549 177.31 320.099 177.546 318.578 177.546V185.546ZM325.491 184.429L328.021 192.019C329.066 191.67 329.801 191.448 330.275 191.321C330.513 191.258 330.61 191.239 330.601 191.241C330.593 191.242 330.519 191.256 330.394 191.271C330.282 191.285 330.028 191.312 329.68 191.312V183.312V175.312C328.22 175.312 326.788 175.692 326.153 175.861C325.23 176.107 324.15 176.443 322.961 176.84L325.491 184.429ZM329.68 183.312V191.312C328.43 191.312 326.211 190.841 324.556 188.793C323.166 187.071 323.146 185.391 323.146 185.127H331.146H339.146C339.146 183.654 338.883 181.066 337.003 178.739C334.86 176.086 331.908 175.312 329.68 175.312V183.312ZM331.146 185.127L323.203 184.174L321.737 196.394L329.68 197.347L337.623 198.3L339.09 186.081L331.146 185.127ZM329.68 197.347L321.75 196.289C321.759 196.223 321.801 195.938 321.952 195.52C322.103 195.105 322.418 194.411 323.048 193.676L329.122 198.883L335.196 204.089C336.938 202.056 337.431 199.748 337.61 198.404L329.68 197.347ZM329.122 198.883L322.612 194.233C323.221 193.38 323.861 192.855 324.205 192.599C324.578 192.32 324.89 192.146 325.056 192.058C325.376 191.89 325.56 191.835 325.469 191.866C325.308 191.922 324.841 192.061 323.927 192.269L325.7 200.07L327.473 207.871C328.608 207.613 329.735 207.322 330.714 206.982C331.194 206.816 331.834 206.571 332.498 206.222C332.926 205.997 334.441 205.199 335.631 203.533L329.122 198.883ZM325.7 200.07L323.888 192.278C322.87 192.515 320.248 192.768 315.366 192.768V200.768V208.768C320.259 208.768 324.527 208.556 327.512 207.862L325.7 200.07ZM315.366 200.768V192.768C309.245 192.768 306.34 191.338 304.985 190.038L299.446 195.811L293.908 201.583C299.442 206.893 307.15 208.768 315.366 208.768V200.768ZM299.446 195.811L305.025 190.077C303.637 188.726 302.279 186.15 302.279 180.868H294.279H286.279C286.279 188.806 288.366 196.192 293.867 201.544L299.446 195.811ZM294.279 180.868H302.279C302.279 174.926 304.016 158.746 307.722 131.535L299.795 130.455L291.869 129.375C288.22 156.161 286.279 173.59 286.279 180.868H294.279ZM299.795 130.455L299.469 122.462L292.626 122.741L292.953 130.734L293.279 138.728L300.122 138.448L299.795 130.455ZM292.953 130.734L293.272 122.741C293.866 122.765 295.673 122.978 297.3 124.606C298.983 126.289 299.207 128.205 299.207 128.989H291.207H283.207C283.207 130.89 283.722 133.656 285.987 135.92C288.196 138.13 290.875 138.658 292.633 138.728L292.953 130.734ZM291.207 128.989L299.097 130.312L300.982 119.07L293.092 117.747L285.202 116.424L283.317 127.666L291.207 128.989ZM293.092 117.747L301.025 118.782C300.929 119.52 300.531 121.062 299.077 122.404C297.616 123.752 296.031 124.03 295.255 124.064L294.908 116.071L294.56 108.079C292.714 108.159 290.29 108.74 288.225 110.647C286.166 112.547 285.395 114.904 285.159 116.712L293.092 117.747ZM294.908 116.071L295.16 124.067L301.794 123.858L301.541 115.862L301.289 107.866L294.655 108.075L294.908 116.071Z" fill="black" mask="url(#path-2-outside-1_56_2)"/>
<defs>
<linearGradient id="paint0_linear_56_2" x1="169.258" y1="-105" x2="168.758" y2="273" gradientUnits="userSpaceOnUse">
<stop stop-color="#D8D7FF"/>
<stop offset="1" stop-color="#A938FF"/>
</linearGradient>
<linearGradient id="paint1_linear_56_2" x1="167.758" y1="65" x2="168.294" y2="222.434" gradientUnits="userSpaceOnUse">
<stop stop-color="#FFFAE8"/>
<stop offset="1" stop-color="#C9C9C9"/>
</linearGradient>
</defs>
</svg>
