<svg width="118" height="118" viewBox="0 0 118 118" fill="none" xmlns="http://www.w3.org/2000/svg">
<path d="M117.253 63.2529C117.253 70.3443 115.856 77.3664 113.143 83.918C110.429 90.4695 106.451 96.4222 101.437 101.437C96.4222 106.451 90.4695 110.429 83.918 113.143C77.3664 115.856 70.3443 117.253 63.2529 117.253V96.0361C80.492 94.1828 94.1839 80.492 96.0371 63.2529H117.253Z" fill="#FF0468"/>
<path d="M22.4688 63.2529C24.322 80.492 38.0139 94.1828 55.2529 96.0361V117.253C48.1615 117.253 41.1395 115.856 34.5879 113.143C28.0363 110.429 22.0837 106.451 17.0693 101.437C12.055 96.4222 8.07703 90.4695 5.36328 83.918C2.64953 77.3664 1.25293 70.3443 1.25293 63.2529H22.4688Z" fill="#FF0468"/>
<path d="M1.25293 1.25293C6.26728 -3.76142 28.0362 8.07692 34.5879 5.36328C41.1395 2.64953 48.1615 1.25293 55.2529 1.25293V22.4688C38.0138 24.322 24.322 38.0138 22.4688 55.2529H1.25293C1.25293 48.1615 2.64953 41.1395 5.36328 34.5879C8.07698 28.0363 -3.76138 6.26732 1.25293 1.25293Z" fill="#37ED00"/>
<path d="M63.2529 1.25293C70.3443 1.25293 77.3664 2.64953 83.918 5.36328C90.4695 8.07704 96.4222 12.055 101.437 17.0693C106.451 22.0837 110.429 28.0363 113.143 34.5879C115.856 41.1395 117.253 48.1615 117.253 55.2529H96.0371C94.1839 38.0138 80.4921 24.322 63.2529 22.4688V1.25293Z" fill="#FF0468"/>
</svg>
