<svg width="1920" height="449" viewBox="0 0 1920 449" fill="none" xmlns="http://www.w3.org/2000/svg">
<g filter="url(#filter0_i_14_17)">
<path d="M-89.5 201.312C-48.7409 247.754 239.5 312.052 377 327.35C545 334.662 589.535 322.027 645.196 306.279C686.407 294.619 728.014 278.051 751.179 239.797C764.938 217.076 770.527 192.294 774.089 166.483C776.401 149.731 786.837 142.448 802.582 137.62C835.662 127.475 873.063 126.653 907.314 127.614C962.483 129.161 1023.53 138.963 1070.57 169.754C1099.18 188.48 1113.08 219.223 1094.25 251.15C1072.37 288.257 1020.55 298.858 981.628 304.163C943.948 309.298 893.324 314.3 858.991 293.291C829.207 275.065 828.432 230.993 836.851 201.312C861.135 115.701 978.153 102.599 1044 148.203C1074.71 169.467 1093.31 204.711 1083.18 242.01C1067.52 299.666 1002.82 328.459 949.284 338.799C908.459 346.684 857.502 346.64 823.567 318.498C791.352 291.782 794.212 246.76 803.545 210.163C815.703 162.49 843.005 128.18 890.757 112.989C943.719 96.1419 1005.77 107.283 1051.51 138.197C1083.46 159.79 1105.29 192.928 1101.18 232.485C1097.11 271.739 1069.43 302.553 1032.84 315.997C979.233 335.693 910.581 327.466 858.991 305.702C821.252 289.781 778.481 251.699 791.994 205.93C804.232 164.476 851.679 147.306 889.987 140.698C946.473 130.956 1008.27 135.834 1062.68 153.591C1083.2 160.289 1142.22 179.867 1121.01 212.857C1105.71 236.661 1075.26 251.61 1049.97 261.06C1014.54 274.303 976.012 280.359 938.503 283.862C906.27 286.871 842.043 295.542 818.273 264.812C797.331 237.737 827.567 192.946 845.13 173.026C882.658 130.458 937.432 105.847 992.601 96.6333C1028.59 90.6235 1067.61 88.9111 1103.69 95.6712C1121.73 99.0531 1145.84 106.357 1150.95 126.94C1161.45 169.208 1094.52 199.192 1065.76 209.971C1007.51 231.803 938.833 241.274 876.703 237.488C847.507 235.708 833.827 224.584 842.434 194.962C846.838 179.808 854.387 165.139 861.975 151.378C864.993 145.905 871.187 131.876 878.051 128.961C884.883 126.058 906.537 166.487 909.047 170.043C930.582 200.551 954.855 229.93 988.366 247.879C1024.24 267.091 1069.27 276.241 1108.6 262.503C1149.71 248.139 1171.91 203.264 1158.17 161.48C1143.59 117.142 1097.63 94.5456 1053.05 97.2106C990.701 100.938 930.753 134.174 884.789 174.565C848.06 206.841 817.302 247.284 796.422 291.559C793.405 297.955 783.922 311.117 790.935 312.052C794.925 312.584 798.063 294.832 798.154 294.445C815.349 221.259 848.342 144.35 926.951 120.879C952.464 113.261 981.555 111.605 1002.8 130.211C1035.4 158.751 1033.05 208.721 1016.96 245.185C1003.65 275.327 976.596 312.974 945.433 327.35C920.271 338.957 927.529 267.931 927.721 259.713C928.993 205.428 933.027 151.736 929.454 97.403C927.89 73.6205 925.661 49.579 920.309 26.3023C919.069 20.906 916.413 3.94614 908.084 2.15313C903.017 1.06228 892.449 6.10094 889.217 7.73343C869.201 17.8441 850.579 31.2271 831.846 43.4281C791.503 69.7037 750.235 94.658 710.75 122.226C703.022 127.621 688.718 137.956 680.716 144.354C680.622 144.43 667.35 154.821 678.021 149.742C719.62 129.944 757.031 102.819 799.502 84.222C839.907 66.5299 889.344 45.5242 934.652 48.9122C970.187 51.5693 989.752 82.1123 1004.83 110.776C1025.59 150.257 1039.58 193.999 1051.32 236.91C1055.65 252.724 1062.27 272.228 1061.24 289.057C1060.53 300.457 1051.02 286.72 1049.59 284.632C1031.05 257.648 1020.54 224.104 1013.68 192.46C1006.86 160.999 1001.01 123.712 1012.82 92.5924C1018.05 78.7913 1032.88 61.3967 1048.43 73.8311C1077.6 97.1557 1067.16 147.109 1051.61 174.469C1027.94 216.116 985.23 243.445 941.005 259.232C896.353 275.171 843.026 284.866 795.555 279.051C716.491 269.367 771.885 163.788 809.417 136.369C848.585 107.754 908.845 86.2019 957.947 93.9394C987.468 98.5911 1011.18 118.255 1013.2 148.876C1015.63 185.646 1002.4 222.28 1001.46 259.039C1000.58 293.217 1007.81 340.939 1050.17 344.475C1134.17 351.49 1179.14 258.948 1229.4 207.47C1236.29 200.415 1255.86 178.93 1251.45 187.746C1250.33 189.984 1239.94 188.429 1239.8 188.42C1222.25 187.21 1204.86 186.172 1187.24 185.918C1138.38 185.213 1088.12 188.742 1039.58 181.877C1020.97 179.245 1014.13 172.723 1024.85 155.515C1045.11 122.994 1114.62 70.5538 1145.66 118.954C1165.3 149.601 1161.81 191.191 1150.47 223.922C1133.02 274.258 1099.69 330.788 1057.67 364.68C1032.24 385.201 998.308 394.097 969.21 376.033C931.138 352.398 910.972 306.747 899.228 265.485C890.541 234.964 879.294 198.838 889.025 167.253C898.688 135.886 916.854 125.684 947.936 121.167C987.597 115.405 1027.78 115.871 1067.11 123.958C1114.36 133.674 1165.71 151.782 1202.83 183.609C1213.85 193.052 1234.95 213.756 1224.69 230.368C1213.36 248.702 1176.95 248.038 1158.75 246.916C1115.46 244.248 1072.57 215.733 1036.21 194.673C1002.54 175.175 972.504 149.4 938.695 130.5C928.424 124.758 926.168 134.52 925.796 143.392C924.638 171.036 931.296 199.679 935.037 226.904C939.962 262.744 942.537 299.306 950.439 334.662C953.582 348.724 957.724 362.64 963.049 376.033C963.363 376.822 967.633 384.307 967.188 386.231C966.885 387.545 964.423 386.858 963.146 386.424C952.794 382.904 942.914 376.368 933.594 370.934C898.414 350.423 862.88 329.688 829.343 306.568C807.813 291.725 794.121 273.102 795.074 245.858C795.822 224.475 806.344 207.064 813.075 187.554C814.704 182.832 810.719 202.944 810.668 204.198C809.114 242.342 808.222 279.857 797.866 316.959C787.444 354.295 769.436 388.807 746.751 420.098C742.981 425.299 729.958 435.002 736.259 436.262C740.877 437.185 748.429 423.992 749.639 422.022C764.278 398.187 772.321 371.778 794.015 352.653C827.231 323.372 876.574 311.738 919.828 310.801C978.239 309.536 1027.5 331.982 1074.04 365.546C1094.39 380.229 1113.91 396.153 1130.25 415.287C1138.24 424.632 1144.54 435.724 1153.26 444.44C1164.76 455.938 1156.28 425.046 1155.86 423.946C1140.4 383.414 1110.7 348.856 1081.55 317.536C1047.42 280.869 1009.43 243.387 966.033 217.668C959.514 213.804 938.627 200.235 929.165 206.411C923.311 210.232 925.953 226.68 926.566 231.33C932.254 274.453 952.02 318.249 975.467 354.481C986.049 370.834 1003.24 394.875 1021.86 403.742C1028.32 406.816 1021.19 376.803 1021.19 376.803C1012.88 340.257 1010.45 309.081 1020.71 272.316C1029.11 242.211 1042.67 206.078 1070.77 188.804C1098.69 171.633 1133.72 172.061 1162.31 186.784C1188.07 200.05 1205.15 221.38 1216.31 247.686C1222.83 263.048 1226.45 291.267 1240.95 301.95C1257.02 313.785 1254.44 249.949 1254.62 247.301C1255.14 239.823 1254.54 219.582 1263.09 215.07C1268.95 211.98 1277.62 216.803 1282.73 218.823C1301.75 226.334 1320.51 234.069 1340.01 240.374C1483.69 286.853 1806.31 290.621 1956 291.559" stroke="#1A1A1A" stroke-width="3" stroke-linecap="square"/>
</g>
<defs>
<filter id="filter0_i_14_17" x="-91.6168" y="0.500122" width="2049.13" height="452" filterUnits="userSpaceOnUse" color-interpolation-filters="sRGB">
<feFlood flood-opacity="0" result="BackgroundImageFix"/>
<feBlend mode="normal" in="SourceGraphic" in2="BackgroundImageFix" result="shape"/>
<feColorMatrix in="SourceAlpha" type="matrix" values="0 0 0 0 0 0 0 0 0 0 0 0 0 0 0 0 0 0 127 0" result="hardAlpha"/>
<feOffset dy="4"/>
<feGaussianBlur stdDeviation="2"/>
<feComposite in2="hardAlpha" operator="arithmetic" k2="-1" k3="1"/>
<feColorMatrix type="matrix" values="0 0 0 0 1 0 0 0 0 1 0 0 0 0 1 0 0 0 0.25 0"/>
<feBlend mode="normal" in2="shape" result="effect1_innerShadow_14_17"/>
</filter>
</defs>
</svg>
