<svg width="509" height="383" viewBox="0 0 509 383" fill="none" xmlns="http://www.w3.org/2000/svg">
<path d="M127.515 5.90295C219.264 -18.681 313.571 35.7668 338.155 127.515C338.515 128.86 338.856 130.207 339.182 131.553C328.311 128.14 316.744 126.299 304.747 126.298C241.332 126.298 189.923 177.707 189.923 241.122C189.923 278.203 207.502 311.179 234.78 332.172C228.882 334.474 222.799 336.478 216.541 338.155C124.793 362.739 30.4868 308.29 5.90283 216.542C-18.6808 124.793 35.7668 30.487 127.515 5.90295Z" fill="url(#paint0_linear_96_51)"/>
<path d="M237.981 59.4311C236.759 61.5486 235.158 63.4202 233.27 64.9389C231.383 66.4576 229.246 67.5937 226.981 68.2824C224.716 68.9711 222.367 69.1989 220.07 68.9527C217.772 68.7066 215.57 67.9913 213.589 66.8478C211.608 65.7042 209.888 64.1548 208.526 62.288C207.164 60.4211 206.187 58.2734 205.651 55.9675C205.115 53.6616 205.03 51.2426 205.401 48.8486C205.773 46.4547 206.593 44.1327 207.816 42.0152L222.899 50.7231L237.981 59.4311Z" fill="#F8F8F8"/>
<path d="M258.391 276H246.886C242.284 276 238.744 274.643 236.266 271.929C233.788 269.097 232.549 265.026 232.549 259.716V255.645C232.549 253.757 233.257 252.813 234.673 252.813H236.266C237.8 252.813 238.567 253.757 238.567 255.645V259.539C238.567 266.265 241.34 269.628 246.886 269.628H258.391C264.055 269.628 266.887 266.265 266.887 259.539V254.583C266.887 251.987 265.884 249.804 263.878 248.034C261.872 246.264 259.217 244.966 255.913 244.14C253.317 243.55 250.721 242.96 248.125 242.37C245.529 241.662 243.051 240.659 240.691 239.361C238.331 238.063 236.384 236.47 234.85 234.582C233.316 232.576 232.549 230.039 232.549 226.971V220.776C232.549 215.82 233.788 211.867 236.266 208.917C238.862 205.967 242.402 204.492 246.886 204.492H258.391C262.875 204.492 266.356 205.967 268.834 208.917C271.43 211.867 272.728 215.82 272.728 220.776V223.608C272.728 225.614 271.961 226.617 270.427 226.617H269.188C267.654 226.617 266.887 225.614 266.887 223.608V220.776C266.887 214.168 264.055 210.864 258.391 210.864H246.886C241.34 210.864 238.567 214.168 238.567 220.776V226.794C238.567 228.8 239.334 230.629 240.868 232.281C242.402 233.815 245.175 235.054 249.187 235.998C251.901 236.588 254.497 237.237 256.975 237.945C259.571 238.535 262.108 239.538 264.586 240.954C266.946 242.252 268.893 243.963 270.427 246.087C271.961 248.093 272.728 250.807 272.728 254.229V259.716C272.728 265.026 271.489 269.097 269.011 271.929C266.533 274.643 262.993 276 258.391 276ZM316.577 276H315.515C314.689 276 313.922 275.233 313.214 273.699C311.68 274.525 310.264 275.115 308.966 275.469C307.786 275.823 306.488 276 305.072 276H298.877C294.983 276 291.856 274.702 289.496 272.106C287.136 269.51 285.956 265.97 285.956 261.486V226.086C285.956 224.67 286.605 223.962 287.903 223.962H289.319C289.909 223.962 290.381 224.198 290.735 224.67C291.089 225.024 291.266 225.496 291.266 226.086V261.309C291.266 267.445 293.803 270.513 298.877 270.513H305.072C310.736 270.513 313.568 267.622 313.568 261.84V226.086C313.568 224.67 314.217 223.962 315.515 223.962H316.577C317.167 223.962 317.639 224.198 317.993 224.67C318.347 225.024 318.524 225.496 318.524 226.086V273.699C318.524 275.233 317.875 276 316.577 276ZM361.695 276H360.456C359.276 276 358.686 275.233 358.686 273.699V238.476C358.686 232.458 356.09 229.449 350.898 229.449H344.526C338.98 229.449 336.207 232.34 336.207 238.122V273.699C336.207 275.233 335.558 276 334.26 276H333.021C331.841 276 331.251 275.233 331.251 273.699V226.086C331.251 225.496 331.369 225.024 331.605 224.67C331.959 224.198 332.431 223.962 333.021 223.962H334.26C334.614 223.962 334.909 224.139 335.145 224.493C335.499 224.729 335.971 225.319 336.561 226.263C339.275 224.729 341.93 223.962 344.526 223.962H350.898C354.792 223.962 357.919 225.26 360.279 227.856C362.639 230.452 363.819 233.992 363.819 238.476V273.699C363.819 275.233 363.111 276 361.695 276ZM396.704 276H378.827C378.237 276 377.765 275.764 377.411 275.292C377.175 274.82 377.057 274.289 377.057 273.699V206.616C377.057 205.082 377.647 204.315 378.827 204.315H380.066C381.364 204.315 382.013 205.082 382.013 206.616V224.847C384.019 223.667 385.553 222.9 386.615 222.546C387.795 222.192 389.034 222.015 390.332 222.015H396.704C400.598 222.015 403.725 223.372 406.085 226.086C408.445 228.8 409.625 232.458 409.625 237.06V261.132C409.625 265.97 408.445 269.687 406.085 272.283C403.725 274.761 400.598 276 396.704 276ZM404.492 237.237C404.492 230.983 401.896 227.856 396.704 227.856H390.332C384.786 227.856 382.013 230.806 382.013 236.706V270.159H396.704C401.896 270.159 404.492 267.091 404.492 260.955V237.237ZM427.983 217.236H423.027C422.791 217.236 422.732 216.941 422.85 216.351C423.086 215.761 423.204 215.23 423.204 214.758V206.793C423.204 206.203 423.086 205.672 422.85 205.2C422.732 204.728 422.791 204.492 423.027 204.492H427.983C428.219 204.492 428.278 204.728 428.16 205.2C428.16 205.672 428.16 206.203 428.16 206.793V214.758C428.16 215.23 428.16 215.761 428.16 216.351C428.278 216.941 428.219 217.236 427.983 217.236ZM427.983 276H423.027C422.791 276 422.732 275.764 422.85 275.292C423.086 274.702 423.204 274.171 423.204 273.699V225.378C423.204 224.788 423.086 224.257 422.85 223.785C422.732 223.313 422.791 223.077 423.027 223.077H427.983C428.219 223.077 428.278 223.313 428.16 223.785C428.16 224.257 428.16 224.788 428.16 225.378V273.699C428.16 274.171 428.16 274.702 428.16 275.292C428.278 275.764 428.219 276 427.983 276ZM455.497 229.449H452.311C449.951 229.449 448.122 230.393 446.824 232.281C445.526 234.051 444.877 236.411 444.877 239.361V273.699C444.877 275.233 444.287 276 443.107 276H442.045C441.101 276 440.629 275.233 440.629 273.699V226.086C440.629 224.67 441.101 223.962 442.045 223.962H443.107C443.579 223.962 443.933 224.08 444.169 224.316C444.405 224.552 444.759 225.26 445.231 226.44C446.765 225.614 448.004 225.024 448.948 224.67C450.01 224.198 451.19 223.962 452.488 223.962H455.497C455.969 223.962 456.382 224.198 456.736 224.67C457.09 225.024 457.267 225.496 457.267 226.086V227.325C457.267 228.741 456.677 229.449 455.497 229.449ZM498.223 276H497.161C496.571 276 496.158 275.882 495.922 275.646C495.686 275.41 495.332 274.702 494.86 273.522C493.208 274.466 491.792 275.115 490.612 275.469C489.432 275.823 488.193 276 486.895 276H480.523C476.511 276 473.384 274.761 471.142 272.283C468.9 269.805 467.779 266.088 467.779 261.132V237.945C467.779 233.107 468.9 229.449 471.142 226.971C473.384 224.375 476.511 223.077 480.523 223.077H486.895C488.193 223.077 489.432 223.254 490.612 223.608C491.792 223.962 493.385 224.729 495.391 225.909V206.616C495.391 205.082 495.981 204.315 497.161 204.315H498.223C499.639 204.315 500.347 205.082 500.347 206.616V273.699C500.347 275.233 499.639 276 498.223 276ZM495.391 237.591C495.391 231.691 492.5 228.741 486.718 228.741H480.523C475.331 228.741 472.735 231.809 472.735 237.945V260.955C472.735 267.091 475.331 270.159 480.523 270.159H486.718C492.5 270.159 495.391 267.327 495.391 261.663V237.591Z" fill="url(#paint1_linear_96_51)"/>
<defs>
<linearGradient id="paint0_linear_96_51" x1="246.091" y1="28.3757" x2="124.806" y2="314.687" gradientUnits="userSpaceOnUse">
<stop stop-color="#FFAE00"/>
<stop offset="1" stop-color="#F97400"/>
</linearGradient>
<linearGradient id="paint1_linear_96_51" x1="451" y1="131.5" x2="349.5" y2="313" gradientUnits="userSpaceOnUse">
<stop stop-color="#FFCC00"/>
<stop offset="1" stop-color="#F97400"/>
</linearGradient>
</defs>
</svg>
